<svg xmlns="http://www.w3.org/2000/svg" viewBox="0 0 512 512" width="512" height="512" role="img" aria-label="BuddyNext">
  <defs>
    <linearGradient id="bnGrad" x1="0" y1="0" x2="1" y2="1">
      <stop offset="0" stop-color="#E63E2B"/>
      <stop offset="1" stop-color="#F59E0B"/>
    </linearGradient>
  </defs>
  <rect x="36" y="36" width="440" height="440" rx="120" fill="url(#bnGrad)"/>
  <!-- community: two members behind, one stepping forward (next) -->
  <g fill="#FFFFFF">
    <g opacity="0.8">
      <circle cx="150" cy="206" r="44"/>
      <path d="M94 310a56 60 0 0 1 112 0v2a6 6 0 0 1-6 6H100a6 6 0 0 1-6-6z"/>
      <circle cx="362" cy="206" r="44"/>
      <path d="M306 310a56 60 0 0 1 112 0v2a6 6 0 0 1-6 6H312a6 6 0 0 1-6-6z"/>
    </g>
    <circle cx="256" cy="244" r="62"/>
    <path d="M166 400a90 94 0 0 1 180 0v4a10 10 0 0 1-10 10H176a10 10 0 0 1-10-10z"/>
  </g>
</svg>
