<svg xmlns="http://www.w3.org/2000/svg" viewBox="0 0 512 512" width="512" height="512" role="img" aria-label="Jetonomy">
  <defs>
    <linearGradient id="jtGrad" x1="0" y1="0" x2="1" y2="1">
      <stop offset="0" stop-color="#3B82F6"/>
      <stop offset="1" stop-color="#7C3AED"/>
    </linearGradient>
  </defs>
  <rect x="36" y="36" width="440" height="440" rx="120" fill="url(#jtGrad)"/>
  <!-- community: two overlapping member silhouettes -->
  <g fill="#FFFFFF">
    <!-- back member -->
    <g opacity="0.82">
      <circle cx="324" cy="206" r="44"/>
      <path d="M268 330a56 60 0 0 1 112 0v2a6 6 0 0 1-6 6H274a6 6 0 0 1-6-6z"/>
    </g>
    <!-- front member -->
    <circle cx="206" cy="220" r="60"/>
    <path d="M124 366a82 86 0 0 1 164 0v4a10 10 0 0 1-10 10H134a10 10 0 0 1-10-10z"/>
  </g>
</svg>
